<?xml version="1.0" encoding="UTF-8"?>
<!DOCTYPE svg PUBLIC "-//W3C//DTD SVG 1.1//EN" "http://www.w3.org/Graphics/SVG/1.1/DTD/svg11.dtd">
<svg xmlns="http://www.w3.org/2000/svg" version="1.1" width="512px" height="512px" style="shape-rendering:geometricPrecision; text-rendering:geometricPrecision; image-rendering:optimizeQuality; fill-rule:evenodd; clip-rule:evenodd" xmlns:xlink="http://www.w3.org/1999/xlink">
<g><path style="opacity:0.901" fill="#090a0a" d="M 433.5,162.5 C 432.362,159.696 432.195,156.696 433,153.5C 435.979,138.107 439.145,122.773 442.5,107.5C 444.628,96.8583 446.628,86.1916 448.5,75.5C 449.234,74.2921 449.567,72.9587 449.5,71.5C 450.885,65.9092 451.885,60.2426 452.5,54.5C 454.796,45.5321 456.796,36.3655 458.5,27C 458.167,26.1667 457.833,25.3333 457.5,24.5C 432.477,49.523 407.81,74.8563 383.5,100.5C 379.833,103.5 376.5,106.833 373.5,110.5C 371.833,111.5 370.5,112.833 369.5,114.5C 332.078,152.951 294.411,191.284 256.5,229.5C 275.752,238.925 295.419,247.591 315.5,255.5C 327.021,261.075 338.688,266.575 350.5,272C 351.337,273.011 351.67,274.178 351.5,275.5C 349.073,275.477 346.74,274.977 344.5,274C 327.418,265.973 310.251,258.14 293,250.5C 291.225,251.27 289.725,252.437 288.5,254C 287.207,254.49 285.873,254.657 284.5,254.5C 284.022,251.722 285.022,249.722 287.5,248.5C 276.714,243.278 265.714,238.278 254.5,233.5C 247.387,254.628 241.221,275.961 236,297.5C 243.53,289.635 251.364,282.135 259.5,275C 260.577,274.53 261.577,274.697 262.5,275.5C 262.649,276.552 262.483,277.552 262,278.5C 252.667,287.167 243.333,295.833 234,304.5C 233,307.833 232,311.167 231,314.5C 229.406,316.982 227.572,317.148 225.5,315C 226.796,311.609 227.796,308.109 228.5,304.5C 226.639,297.415 224.472,290.415 222,283.5C 221.22,281.613 221.387,279.946 222.5,278.5C 224.411,278.574 225.578,279.574 226,281.5C 227.667,286.5 229.333,291.5 231,296.5C 237.82,274.224 244.486,251.89 251,229.5C 260.167,220.333 269.333,211.167 278.5,202C 275.583,200.472 272.583,199.139 269.5,198C 268.748,197.329 268.414,196.496 268.5,195.5C 268.735,194.903 269.235,194.57 270,194.5C 274.023,196.512 278.19,197.679 282.5,198C 293.006,186.661 303.672,175.495 314.5,164.5C 315.5,164.167 316.167,163.5 316.5,162.5C 337.806,140.86 359.139,119.194 380.5,97.5C 383.085,96.5346 383.585,95.2012 382,93.5C 349.51,81.0602 317.01,68.7269 284.5,56.5C 283.292,55.7659 281.959,55.4326 280.5,55.5C 275.735,53.129 270.735,51.129 265.5,49.5C 251.234,43.91 236.901,38.41 222.5,33C 217.404,31.4202 214.237,33.2535 213,38.5C 208.153,51.5211 203.32,64.5211 198.5,77.5C 197.216,80.4018 196.216,83.4018 195.5,86.5C 193.935,88.5093 192.935,90.8427 192.5,93.5C 184.775,113.006 177.442,132.673 170.5,152.5C 170.667,153.5 170.833,154.5 171,155.5C 173.626,158.231 176.793,160.064 180.5,161C 181.252,161.671 181.586,162.504 181.5,163.5C 174.128,163.966 169.128,160.633 166.5,153.5C 166.421,150.729 166.921,148.063 168,145.5C 182.333,107.833 196.667,70.1667 211,32.5C 214.396,28.7973 218.563,27.6306 223.5,29C 262.078,43.7913 300.745,58.2913 339.5,72.5C 340.058,73.7899 341.058,74.6232 342.5,75C 351.474,78.4357 360.474,81.4357 369.5,84C 394.218,64.9483 419.218,46.2816 444.5,28C 420.827,38.3305 397.16,48.9972 373.5,60C 371.735,60.6397 370.068,60.4731 368.5,59.5C 368.414,58.5041 368.748,57.6708 369.5,57C 400.187,43.2164 430.687,29.0497 461,14.5C 462,15.1667 463,15.8333 464,16.5C 455.322,64.8928 445.989,113.226 436,161.5C 435.329,162.252 434.496,162.586 433.5,162.5 Z"/></g>
<g><path style="opacity:1" fill="#66c9e8" d="M 452.5,54.5 C 448.818,54.3347 445.152,54.5014 441.5,55C 436.764,59.8561 433.931,65.6895 433,72.5C 432.215,74.286 431.049,75.786 429.5,77C 424.054,77.1011 418.721,77.7677 413.5,79C 410.036,84.3829 407.536,90.2162 406,96.5C 402.794,100.52 398.628,102.52 393.5,102.5C 390.02,102.418 386.687,101.752 383.5,100.5C 407.81,74.8563 432.477,49.523 457.5,24.5C 457.833,25.3333 458.167,26.1667 458.5,27C 456.796,36.3655 454.796,45.5321 452.5,54.5 Z"/></g>
<g><path style="opacity:0.994" fill="#93d4ed" d="M 339.5,72.5 C 349.279,68.4446 358.945,64.1112 368.5,59.5C 370.068,60.4731 371.735,60.6397 373.5,60C 397.16,48.9972 420.827,38.3305 444.5,28C 419.218,46.2816 394.218,64.9483 369.5,84C 360.474,81.4357 351.474,78.4357 342.5,75C 341.058,74.6232 340.058,73.7899 339.5,72.5 Z"/></g>
<g><path style="opacity:1" fill="#f7b615" d="M 265.5,49.5 C 265.641,54.9069 263.141,58.2403 258,59.5C 252.943,57.2366 249.276,58.5699 247,63.5C 246.489,65.8782 245.822,68.2115 245,70.5C 244.184,71.8228 243.017,72.4894 241.5,72.5C 236.56,63.7199 231.393,55.0532 226,46.5C 229.253,55.0121 233.086,63.3455 237.5,71.5C 234.012,69.7228 230.346,68.8895 226.5,69C 223.238,71.592 220.738,74.7587 219,78.5C 215.51,82.0473 211.343,83.214 206.5,82C 203.688,80.6723 201.022,79.1723 198.5,77.5C 203.32,64.5211 208.153,51.5211 213,38.5C 214.237,33.2535 217.404,31.4202 222.5,33C 236.901,38.41 251.234,43.91 265.5,49.5 Z"/></g>
<g><path style="opacity:1" fill="#62c2e1" d="M 441.5,33.5 C 442.239,33.369 442.906,33.5357 443.5,34C 424.471,52.695 405.805,71.695 387.5,91C 382.327,90.1646 377.327,88.4979 372.5,86C 395.969,69.0202 418.969,51.5202 441.5,33.5 Z"/></g>
<g><path style="opacity:1" fill="#fdcc39" d="M 265.5,49.5 C 270.735,51.129 275.735,53.129 280.5,55.5C 281.648,60.439 279.981,63.939 275.5,66C 270.382,66.398 265.382,66.0647 260.5,65C 258.622,66.5429 257.122,68.3762 256,70.5C 255.74,74.2498 255.073,77.9164 254,81.5C 252.556,83.1554 250.722,83.822 248.5,83.5C 245.931,80.039 243.597,76.3723 241.5,72.5C 243.017,72.4894 244.184,71.8228 245,70.5C 245.822,68.2115 246.489,65.8782 247,63.5C 249.276,58.5699 252.943,57.2366 258,59.5C 263.141,58.2403 265.641,54.9069 265.5,49.5 Z"/></g>
<g><path style="opacity:1" fill="#95d8f2" d="M 452.5,54.5 C 451.885,60.2426 450.885,65.9092 449.5,71.5C 445.452,71.4411 442.285,73.1078 440,76.5C 438.057,82.1194 435.891,87.6194 433.5,93C 431.966,93.923 430.299,94.423 428.5,94.5C 422.617,92.3747 417.451,93.3747 413,97.5C 410.027,102.079 408.027,107.079 407,112.5C 405.402,117.099 402.235,119.932 397.5,121C 386.902,123.197 378.902,119.697 373.5,110.5C 376.5,106.833 379.833,103.5 383.5,100.5C 386.687,101.752 390.02,102.418 393.5,102.5C 398.628,102.52 402.794,100.52 406,96.5C 407.536,90.2162 410.036,84.3829 413.5,79C 418.721,77.7677 424.054,77.1011 429.5,77C 431.049,75.786 432.215,74.286 433,72.5C 433.931,65.6895 436.764,59.8561 441.5,55C 445.152,54.5014 448.818,54.3347 452.5,54.5 Z"/></g>
<g><path style="opacity:1" fill="#f9b817" d="M 280.5,55.5 C 281.959,55.4326 283.292,55.7659 284.5,56.5C 284.363,64.8022 280.196,69.4688 272,70.5C 268.434,69.9645 264.934,69.4645 261.5,69C 259.24,73.903 257.574,79.0696 256.5,84.5C 254.757,86.0383 252.757,87.0383 250.5,87.5C 249.326,86.4863 248.66,85.153 248.5,83.5C 250.722,83.822 252.556,83.1554 254,81.5C 255.073,77.9164 255.74,74.2498 256,70.5C 257.122,68.3762 258.622,66.5429 260.5,65C 265.382,66.0647 270.382,66.398 275.5,66C 279.981,63.939 281.648,60.439 280.5,55.5 Z"/></g>
<g><path style="opacity:1" fill="#fecd3b" d="M 284.5,56.5 C 317.01,68.7269 349.51,81.0602 382,93.5C 383.585,95.2012 383.085,96.5346 380.5,97.5C 373.305,99.0774 365.971,99.9107 358.5,100C 357.167,100.667 355.833,101.333 354.5,102C 350.451,107.271 346.784,112.771 343.5,118.5C 335.872,121.745 327.872,123.245 319.5,123C 308.531,131.161 296.198,135.494 282.5,136C 278.388,134.221 275.222,131.388 273,127.5C 265.672,114.022 258.172,100.688 250.5,87.5C 252.757,87.0383 254.757,86.0383 256.5,84.5C 257.574,79.0696 259.24,73.903 261.5,69C 264.934,69.4645 268.434,69.9645 272,70.5C 280.196,69.4688 284.363,64.8022 284.5,56.5 Z"/></g>
<g><path style="opacity:1" fill="#fecd3a" d="M 237.5,71.5 C 239.94,74.0434 241.606,77.0434 242.5,80.5C 237.376,77.3032 232.876,77.9698 229,82.5C 225.418,93.5441 217.918,97.7108 206.5,95C 203.339,93.5869 200.339,91.9203 197.5,90C 196.177,89.1841 195.511,88.0174 195.5,86.5C 196.216,83.4018 197.216,80.4018 198.5,77.5C 201.022,79.1723 203.688,80.6723 206.5,82C 211.343,83.214 215.51,82.0473 219,78.5C 220.738,74.7587 223.238,71.592 226.5,69C 230.346,68.8895 234.012,69.7228 237.5,71.5 Z"/></g>
<g><path style="opacity:1" fill="#fffdf8" d="M 294.5,68.5 C 303.73,68.9424 312.396,71.4424 320.5,76C 328.22,83.7413 326.553,87.0746 315.5,86C 305.953,84.8131 298.12,80.6464 292,73.5C 291.294,71.0448 292.127,69.3781 294.5,68.5 Z"/></g>
<g><path style="opacity:1" fill="#efab20" d="M 241.5,72.5 C 243.597,76.3723 245.931,80.039 248.5,83.5C 248.66,85.153 249.326,86.4863 250.5,87.5C 258.172,100.688 265.672,114.022 273,127.5C 275.222,131.388 278.388,134.221 282.5,136C 296.198,135.494 308.531,131.161 319.5,123C 327.872,123.245 335.872,121.745 343.5,118.5C 349.095,116.464 354.762,114.964 360.5,114C 340.65,121.505 320.817,129.005 301,136.5C 300.333,137.167 300.333,137.833 301,138.5C 306.966,146.129 312.133,154.129 316.5,162.5C 316.167,163.5 315.5,164.167 314.5,164.5C 309.75,158.673 305.75,152.34 302.5,145.5C 301.773,142.378 300.273,139.712 298,137.5C 290.704,141.642 283.537,141.475 276.5,137C 272.306,133.402 268.972,129.235 266.5,124.5C 260.294,111.32 253.294,98.6531 245.5,86.5C 245.008,84.1815 244.008,82.1815 242.5,80.5C 241.606,77.0434 239.94,74.0434 237.5,71.5C 233.086,63.3455 229.253,55.0121 226,46.5C 231.393,55.0532 236.56,63.7199 241.5,72.5 Z"/></g>
<g><path style="opacity:1" fill="#6bccec" d="M 449.5,71.5 C 449.567,72.9587 449.234,74.2921 448.5,75.5C 446.61,75.2965 445.11,75.9632 444,77.5C 441.739,81.9499 440.072,86.6165 439,91.5C 436.775,95.6988 433.275,98.0322 428.5,98.5C 423.169,96.325 418.669,97.325 415,101.5C 412.667,107.167 410.333,112.833 408,118.5C 401.79,124.901 394.29,127.068 385.5,125C 382.853,123.701 380.186,122.368 377.5,121C 375.229,118.218 372.563,116.051 369.5,114.5C 370.5,112.833 371.833,111.5 373.5,110.5C 378.902,119.697 386.902,123.197 397.5,121C 402.235,119.932 405.402,117.099 407,112.5C 408.027,107.079 410.027,102.079 413,97.5C 417.451,93.3747 422.617,92.3747 428.5,94.5C 430.299,94.423 431.966,93.923 433.5,93C 435.891,87.6194 438.057,82.1194 440,76.5C 442.285,73.1078 445.452,71.4411 449.5,71.5 Z"/></g>
<g><path style="opacity:1" fill="#96d9f3" d="M 448.5,75.5 C 446.628,86.1916 444.628,96.8583 442.5,107.5C 437.125,111.708 432.625,116.708 429,122.5C 427.945,129.487 426.945,136.487 426,143.5C 425.072,149.187 422.239,153.687 417.5,157C 410.204,160.065 404.371,164.898 400,171.5C 396.7,179.723 394.2,188.057 392.5,196.5C 391.38,204.607 387.714,211.274 381.5,216.5C 378.068,214.396 375.734,211.396 374.5,207.5C 373.153,212.53 370.153,216.197 365.5,218.5C 366.602,219.176 367.602,219.842 368.5,220.5C 360.995,219.988 353.661,220.822 346.5,223C 343.705,224.793 341.205,226.96 339,229.5C 336.574,236.453 333.574,243.119 330,249.5C 326.027,253.547 321.194,255.547 315.5,255.5C 295.419,247.591 275.752,238.925 256.5,229.5C 294.411,191.284 332.078,152.951 369.5,114.5C 372.563,116.051 375.229,118.218 377.5,121C 380.186,122.368 382.853,123.701 385.5,125C 394.29,127.068 401.79,124.901 408,118.5C 410.333,112.833 412.667,107.167 415,101.5C 418.669,97.325 423.169,96.325 428.5,98.5C 433.275,98.0322 436.775,95.6988 439,91.5C 440.072,86.6165 441.739,81.9499 444,77.5C 445.11,75.9632 446.61,75.2965 448.5,75.5 Z"/></g>
<g><path style="opacity:1" fill="#f8b818" d="M 242.5,80.5 C 244.008,82.1815 245.008,84.1815 245.5,86.5C 242.098,83.3001 238.098,82.1334 233.5,83C 231.445,86.9939 229.111,90.8273 226.5,94.5C 215.434,101.617 204.767,100.951 194.5,92.5C 193.817,92.8627 193.15,93.1961 192.5,93.5C 192.935,90.8427 193.935,88.5093 195.5,86.5C 195.511,88.0174 196.177,89.1841 197.5,90C 200.339,91.9203 203.339,93.5869 206.5,95C 217.918,97.7108 225.418,93.5441 229,82.5C 232.876,77.9698 237.376,77.3032 242.5,80.5 Z"/></g>
<g><path style="opacity:1" fill="#fecd3a" d="M 245.5,86.5 C 253.294,98.6531 260.294,111.32 266.5,124.5C 268.972,129.235 272.306,133.402 276.5,137C 283.537,141.475 290.704,141.642 298,137.5C 300.273,139.712 301.773,142.378 302.5,145.5C 298.395,154.099 291.562,158.433 282,158.5C 276.878,158.136 271.878,157.136 267,155.5C 265.56,156.148 264.06,156.481 262.5,156.5C 258.48,153.642 255.314,149.975 253,145.5C 251.5,151 248,154.5 242.5,156C 244.653,156.099 246.319,156.933 247.5,158.5C 242.933,164.121 237.267,168.288 230.5,171C 222.323,171.171 214.323,171.671 206.5,172.5C 198.274,169.221 189.941,166.221 181.5,163.5C 181.586,162.504 181.252,161.671 180.5,161C 176.793,160.064 173.626,158.231 171,155.5C 170.833,154.5 170.667,153.5 170.5,152.5C 177.442,132.673 184.775,113.006 192.5,93.5C 193.15,93.1961 193.817,92.8627 194.5,92.5C 204.767,100.951 215.434,101.617 226.5,94.5C 229.111,90.8273 231.445,86.9939 233.5,83C 238.098,82.1334 242.098,83.3001 245.5,86.5 Z"/></g>
<g><path style="opacity:1" fill="#fffcf5" d="M 330.5,84.5 C 336.189,83.0586 339.522,85.0586 340.5,90.5C 337.68,90.7525 335.014,90.2525 332.5,89C 330.963,87.8904 330.297,86.3904 330.5,84.5 Z"/></g>
<g><path style="opacity:1" fill="#68ccec" d="M 442.5,107.5 C 439.145,122.773 435.979,138.107 433,153.5C 432.195,156.696 432.362,159.696 433.5,162.5C 425.369,206.654 416.536,250.654 407,294.5C 404.237,296.97 401.07,297.804 397.5,297C 382.265,289.548 366.932,282.382 351.5,275.5C 351.67,274.178 351.337,273.011 350.5,272C 338.688,266.575 327.021,261.075 315.5,255.5C 321.194,255.547 326.027,253.547 330,249.5C 333.574,243.119 336.574,236.453 339,229.5C 341.205,226.96 343.705,224.793 346.5,223C 353.661,220.822 360.995,219.988 368.5,220.5C 371.366,222.546 373.533,225.213 375,228.5C 376.679,224.116 379.512,220.783 383.5,218.5C 382.757,217.818 382.091,217.151 381.5,216.5C 387.714,211.274 391.38,204.607 392.5,196.5C 394.2,188.057 396.7,179.723 400,171.5C 404.371,164.898 410.204,160.065 417.5,157C 422.239,153.687 425.072,149.187 426,143.5C 426.945,136.487 427.945,129.487 429,122.5C 432.625,116.708 437.125,111.708 442.5,107.5 Z"/></g>
<g><path style="opacity:1" fill="#f7b616" d="M 380.5,97.5 C 359.139,119.194 337.806,140.86 316.5,162.5C 312.133,154.129 306.966,146.129 301,138.5C 300.333,137.833 300.333,137.167 301,136.5C 320.817,129.005 340.65,121.505 360.5,114C 354.762,114.964 349.095,116.464 343.5,118.5C 346.784,112.771 350.451,107.271 354.5,102C 355.833,101.333 357.167,100.667 358.5,100C 365.971,99.9107 373.305,99.0774 380.5,97.5 Z"/></g>
<g><path style="opacity:1" fill="#efab22" d="M 266.5,124.5 C 237.646,136.507 207.98,146.007 177.5,153C 206.433,141.189 236.099,131.689 266.5,124.5 Z"/></g>
<g><path style="opacity:1" fill="#fffcf5" d="M 262.5,156.5 C 258.543,158.457 255.543,161.457 253.5,165.5C 252.192,162.536 250.192,160.203 247.5,158.5C 246.319,156.933 244.653,156.099 242.5,156C 248,154.5 251.5,151 253,145.5C 255.314,149.975 258.48,153.642 262.5,156.5 Z"/></g>
<g><path style="opacity:1" fill="#f8b716" d="M 302.5,145.5 C 305.75,152.34 309.75,158.673 314.5,164.5C 303.672,175.495 293.006,186.661 282.5,198C 278.19,197.679 274.023,196.512 270,194.5C 269.235,194.57 268.735,194.903 268.5,195.5C 258.574,191.969 248.574,188.636 238.5,185.5C 237.486,184.326 236.153,183.66 234.5,183.5C 225.167,179.833 215.833,176.167 206.5,172.5C 214.323,171.671 222.323,171.171 230.5,171C 237.267,168.288 242.933,164.121 247.5,158.5C 250.192,160.203 252.192,162.536 253.5,165.5C 255.543,161.457 258.543,158.457 262.5,156.5C 264.06,156.481 265.56,156.148 267,155.5C 271.878,157.136 276.878,158.136 282,158.5C 291.562,158.433 298.395,154.099 302.5,145.5 Z"/></g>
<g><path style="opacity:0.998" fill="#95d7f1" d="M 166.5,153.5 C 169.128,160.633 174.128,163.966 181.5,163.5C 189.941,166.221 198.274,169.221 206.5,172.5C 215.833,176.167 225.167,179.833 234.5,183.5C 224.018,191.803 213.352,199.97 202.5,208C 200.833,208.667 199.167,208.667 197.5,208C 171.122,198.573 144.455,190.073 117.5,182.5C 116.167,181.5 116.167,180.5 117.5,179.5C 127.833,174.667 138.167,169.833 148.5,165C 149.337,163.989 149.67,162.822 149.5,161.5C 155.287,159.106 160.954,156.44 166.5,153.5 Z"/></g>
<g><path style="opacity:0.866" fill="#060a0b" d="M 149.5,161.5 C 149.67,162.822 149.337,163.989 148.5,165C 138.167,169.833 127.833,174.667 117.5,179.5C 116.167,180.5 116.167,181.5 117.5,182.5C 144.455,190.073 171.122,198.573 197.5,208C 199.167,208.667 200.833,208.667 202.5,208C 213.352,199.97 224.018,191.803 234.5,183.5C 236.153,183.66 237.486,184.326 238.5,185.5C 226.734,194.086 215.067,202.919 203.5,212C 205.56,216.847 207.227,221.847 208.5,227C 208.361,228.301 207.695,229.134 206.5,229.5C 205.25,229.423 204.417,228.756 204,227.5C 202.869,223.106 201.535,218.773 200,214.5C 199.097,213.299 197.931,212.465 196.5,212C 169.291,202.158 141.791,193.325 114,185.5C 111.926,182.209 112.092,179.043 114.5,176C 124.5,171.333 134.5,166.667 144.5,162C 146.134,161.506 147.801,161.34 149.5,161.5 Z"/></g>
<g><path style="opacity:1" fill="#f8fcfe" d="M 320.5,179.5 C 321.833,179.5 323.167,179.5 324.5,179.5C 324.052,184.713 321.385,188.38 316.5,190.5C 314.717,189.652 314.217,188.319 315,186.5C 316.666,184.004 318.5,181.671 320.5,179.5 Z"/></g>
<g><path style="opacity:0.996" fill="#67cbeb" d="M 238.5,185.5 C 248.574,188.636 258.574,191.969 268.5,195.5C 268.414,196.496 268.748,197.329 269.5,198C 272.583,199.139 275.583,200.472 278.5,202C 269.333,211.167 260.167,220.333 251,229.5C 244.486,251.89 237.82,274.224 231,296.5C 229.333,291.5 227.667,286.5 226,281.5C 225.578,279.574 224.411,278.574 222.5,278.5C 217.167,262.167 211.833,245.833 206.5,229.5C 207.695,229.134 208.361,228.301 208.5,227C 207.227,221.847 205.56,216.847 203.5,212C 215.067,202.919 226.734,194.086 238.5,185.5 Z"/></g>
<g><path style="opacity:1" fill="#f6fcfe" d="M 392.5,196.5 C 390.827,197.343 389.66,198.676 389,200.5C 387.959,198.415 386.459,196.748 384.5,195.5C 386.718,194.076 388.218,192.076 389,189.5C 389.989,191.97 391.155,194.303 392.5,196.5 Z"/></g>
<g><path style="opacity:1" fill="#fcfefe" d="M 307.5,193.5 C 308.822,193.33 309.989,193.663 311,194.5C 311.667,196.5 311.667,198.5 311,200.5C 306.029,210.808 298.862,219.308 289.5,226C 286.794,227.908 283.794,228.741 280.5,228.5C 281.141,221.216 283.974,214.882 289,209.5C 294.474,203.18 300.641,197.847 307.5,193.5 Z"/></g>
<g><path style="opacity:1" fill="#fafdfe" d="M 381.5,216.5 C 382.091,217.151 382.757,217.818 383.5,218.5C 379.512,220.783 376.679,224.116 375,228.5C 373.533,225.213 371.366,222.546 368.5,220.5C 367.602,219.842 366.602,219.176 365.5,218.5C 370.153,216.197 373.153,212.53 374.5,207.5C 375.734,211.396 378.068,214.396 381.5,216.5 Z"/></g>
<g><path style="opacity:0.992" fill="#45c1df" d="M 284.5,254.5 C 277.167,261.5 269.833,268.5 262.5,275.5C 261.577,274.697 260.577,274.53 259.5,275C 251.364,282.135 243.53,289.635 236,297.5C 241.221,275.961 247.387,254.628 254.5,233.5C 265.714,238.278 276.714,243.278 287.5,248.5C 285.022,249.722 284.022,251.722 284.5,254.5 Z"/></g>
<g><path style="opacity:0.71" fill="#000000" d="M 223.5,321.5 C 225.635,321.147 226.968,321.98 227.5,324C 226.383,328.404 224.383,332.238 221.5,335.5C 220.119,335 219.453,334 219.5,332.5C 220.447,328.657 221.78,324.991 223.5,321.5 Z"/></g>
<g><path style="opacity:0.713" fill="#000000" d="M 95.5,332.5 C 99.2733,332.263 102.94,332.763 106.5,334C 107.451,334.718 107.617,335.551 107,336.5C 102.263,337.469 97.43,337.803 92.5,337.5C 92.31,335.041 93.31,333.374 95.5,332.5 Z"/></g>
<g><path style="opacity:0.712" fill="#000000" d="M 84.5,336.5 C 87.6802,336.176 88.8469,337.51 88,340.5C 85.4112,342.211 82.9112,344.045 80.5,346C 79.1667,346.667 77.8333,346.667 76.5,346C 75.5494,345.282 75.3828,344.449 76,343.5C 78.6278,340.79 81.4611,338.456 84.5,336.5 Z"/></g>
<g><path style="opacity:0.686" fill="#000000" d="M 112.5,336.5 C 117.699,337.603 121.699,340.436 124.5,345C 123.534,346.678 122.201,347.345 120.5,347C 117.667,344.833 114.833,342.667 112,340.5C 111.421,339.072 111.588,337.738 112.5,336.5 Z"/></g>
<g><path style="opacity:0.713" fill="#000000" d="M 216.5,339.5 C 217.5,339.5 218.5,339.5 219.5,339.5C 219.625,345.138 217.625,349.804 213.5,353.5C 212.119,353 211.453,352 211.5,350.5C 212.598,346.522 214.265,342.856 216.5,339.5 Z"/></g>
<g><path style="opacity:0.681" fill="#000000" d="M 70.5,349.5 C 72.6348,349.147 73.9681,349.98 74.5,352C 72.5355,356.103 70.2021,359.936 67.5,363.5C 66.354,362.855 65.354,362.022 64.5,361C 66.1153,356.935 68.1153,353.102 70.5,349.5 Z"/></g>
<g><path style="opacity:0.704" fill="#000000" d="M 125.5,350.5 C 127.144,350.286 128.644,350.62 130,351.5C 131.774,354.715 133.274,358.048 134.5,361.5C 133.214,363.571 131.547,363.904 129.5,362.5C 127.576,358.662 126.242,354.662 125.5,350.5 Z"/></g>
<g><path style="opacity:0.702" fill="#000000" d="M 207.5,357.5 C 209.346,357.222 210.68,357.889 211.5,359.5C 210,362.5 208.5,365.5 207,368.5C 205.069,371.105 203.236,371.105 201.5,368.5C 203.258,364.646 205.258,360.979 207.5,357.5 Z"/></g>
<g><path style="opacity:0.712" fill="#000000" d="M 63.5,367.5 C 65.8896,367.685 66.8896,369.018 66.5,371.5C 65.9534,374.826 65.4534,378.16 65,381.5C 62.5676,382.698 61.0676,381.864 60.5,379C 60.8147,374.883 61.8147,371.049 63.5,367.5 Z"/></g>
<g><path style="opacity:0.675" fill="#000000" d="M 132.5,368.5 C 134.017,368.511 135.184,369.177 136,370.5C 136.827,374.541 136.66,378.541 135.5,382.5C 134.28,383.711 133.113,383.711 132,382.5C 131.227,377.748 131.393,373.081 132.5,368.5 Z"/></g>
<g><path style="opacity:0.696" fill="#000000" d="M 197.5,374.5 C 198.833,374.5 200.167,374.5 201.5,374.5C 200.682,378.475 199.016,382.141 196.5,385.5C 194.955,386.452 193.288,386.785 191.5,386.5C 192.418,381.997 194.418,377.997 197.5,374.5 Z"/></g>
<g><path style="opacity:0.717" fill="#000000" d="M 61.5,387.5 C 63.451,387.227 64.951,387.893 66,389.5C 66.8279,393.466 67.3279,397.466 67.5,401.5C 65.549,401.773 64.049,401.107 63,399.5C 61.8436,395.582 61.3436,391.582 61.5,387.5 Z"/></g>
<g><path style="opacity:0.722" fill="#000000" d="M 130.5,388.5 C 132.665,388.116 134.332,388.783 135.5,390.5C 134.605,393.808 133.771,397.141 133,400.5C 130.577,403.249 129.077,402.749 128.5,399C 129.409,395.534 130.076,392.034 130.5,388.5 Z"/></g>
<g><path style="opacity:0.7" fill="#000000" d="M 186.5,390.5 C 187.833,390.5 189.167,390.5 190.5,390.5C 189.351,395.451 186.685,399.451 182.5,402.5C 181,402.547 180,401.881 179.5,400.5C 181.843,397.138 184.176,393.804 186.5,390.5 Z"/></g>
<g><path style="opacity:0.687" fill="#000000" d="M 68.5,405.5 C 69.4959,405.414 70.3292,405.748 71,406.5C 74.0134,409.997 75.8468,413.997 76.5,418.5C 75.1266,418.657 73.7932,418.49 72.5,418C 70.375,414.918 68.375,411.751 66.5,408.5C 67.1925,407.482 67.8592,406.482 68.5,405.5 Z"/></g>
<g><path style="opacity:0.674" fill="#000000" d="M 174.5,405.5 C 177.68,405.176 178.847,406.51 178,409.5C 175.5,412 173,414.5 170.5,417C 167.333,417.833 166.167,416.667 167,413.5C 169.705,410.964 172.205,408.297 174.5,405.5 Z"/></g>
<g><path style="opacity:0.715" fill="#000000" d="M 125.5,407.5 C 127.665,407.116 129.332,407.783 130.5,409.5C 129.235,412.796 128.068,416.129 127,419.5C 124.786,422.308 123.286,421.975 122.5,418.5C 123.71,414.872 124.71,411.206 125.5,407.5 Z"/></g>
<g><path style="opacity:0.679" fill="#000000" d="M 160.5,418.5 C 163.001,418.826 164.168,420.159 164,422.5C 160.799,426.088 156.965,428.255 152.5,429C 151.483,427.951 151.316,426.784 152,425.5C 155.023,423.302 157.856,420.969 160.5,418.5 Z"/></g>
<g><path style="opacity:0.711" fill="#000000" d="M 79.5,421.5 C 80.8734,421.343 82.2068,421.51 83.5,422C 85.6572,423.912 87.9906,425.579 90.5,427C 92,429.167 91.5,430.667 89,431.5C 84.6699,429.919 81.1699,427.252 78.5,423.5C 78.8627,422.817 79.1961,422.15 79.5,421.5 Z"/></g>
<g><path style="opacity:0.752" fill="#000000" d="M 119.5,425.5 C 121.635,425.147 122.968,425.98 123.5,428C 122.496,430.35 121.496,432.684 120.5,435C 123.146,435.497 125.813,435.664 128.5,435.5C 128.5,436.833 128.5,438.167 128.5,439.5C 123.936,440.474 119.436,440.474 115,439.5C 115.595,434.619 117.095,429.952 119.5,425.5 Z"/></g>
<g><path style="opacity:0.697" fill="#000000" d="M 142.5,429.5 C 146.676,428.831 148.009,430.331 146.5,434C 143.268,435.449 139.935,436.616 136.5,437.5C 133.718,437.141 133.052,435.808 134.5,433.5C 137.358,432.339 140.025,431.006 142.5,429.5 Z"/></g>
<g><path style="opacity:0.709" fill="#000000" d="M 96.5,431.5 C 99.8898,432.023 103.223,432.857 106.5,434C 110.143,435.578 110.309,437.411 107,439.5C 103.527,438.342 100.027,437.176 96.5,436C 95.2721,434.51 95.2721,433.01 96.5,431.5 Z"/></g>
<g><path style="opacity:0.688" fill="#000000" d="M 110.5,443.5 C 112.665,443.116 114.332,443.783 115.5,445.5C 113.505,449.635 111.005,453.302 108,456.5C 106.268,456.266 105.434,455.266 105.5,453.5C 107.185,450.156 108.852,446.823 110.5,443.5 Z"/></g>
<g><path style="opacity:0.692" fill="#000000" d="M 100.5,459.5 C 103.68,459.176 104.847,460.51 104,463.5C 102.188,466.28 100.021,468.78 97.5,471C 96.2068,471.49 94.8734,471.657 93.5,471.5C 94.7725,466.965 97.1058,462.965 100.5,459.5 Z"/></g>
<g><path style="opacity:0.692" fill="#000000" d="M 87.5,473.5 C 90.2436,474.072 91.0769,475.738 90,478.5C 87.5,480.333 85,482.167 82.5,484C 79.3333,484.833 78.1667,483.667 79,480.5C 82.0228,478.302 84.8562,475.969 87.5,473.5 Z"/></g>
<g><path style="opacity:0.733" fill="#000000" d="M 70.5,484.5 C 74.1612,484.35 75.1612,485.85 73.5,489C 69.3597,492.075 65.0264,492.741 60.5,491C 61.0465,490.075 61.7132,489.242 62.5,488.5C 65.507,487.663 68.1737,486.33 70.5,484.5 Z"/></g>
<g><path style="opacity:0.655" fill="#000000" d="M 51.5,490.5 C 55.1378,489.737 56.6378,491.07 56,494.5C 53.1905,495.836 50.3571,496.169 47.5,495.5C 46.4173,494.635 46.2506,493.635 47,492.5C 48.6225,491.901 50.1225,491.234 51.5,490.5 Z"/></g>
</svg>
